<svg xmlns="http://www.w3.org/2000/svg" viewBox="0 0 1200 1500" preserveAspectRatio="xMidYMid slice" role="img" aria-label="">
  <defs>
    <linearGradient id="bnAuthBase" x1="0" y1="0" x2="1" y2="1">
      <stop offset="0" stop-color="#1565d8"/>
      <stop offset="0.55" stop-color="#3b3aa6"/>
      <stop offset="1" stop-color="#6d28d9"/>
    </linearGradient>
    <radialGradient id="bnGlowA" cx="0.18" cy="0.16" r="0.6">
      <stop offset="0" stop-color="#4f9bff" stop-opacity="0.5"/>
      <stop offset="1" stop-color="#4f9bff" stop-opacity="0"/>
    </radialGradient>
    <radialGradient id="bnGlowB" cx="0.86" cy="0.88" r="0.65">
      <stop offset="0" stop-color="#a855f7" stop-opacity="0.45"/>
      <stop offset="1" stop-color="#a855f7" stop-opacity="0"/>
    </radialGradient>
  </defs>
  <rect width="1200" height="1500" fill="url(#bnAuthBase)"/>
  <rect width="1200" height="1500" fill="url(#bnGlowA)"/>
  <rect width="1200" height="1500" fill="url(#bnGlowB)"/>

  <!-- Networking texture: a constellation of connected nodes. -->
  <g stroke="#ffffff" stroke-opacity="0.14" stroke-width="1.2" fill="none">
    <path d="M120 200 L360 320 L300 560 L120 200 M360 320 L620 240 L620 480 L300 560 M620 480 L880 420 L980 660 L620 480 M300 560 L420 820 L680 760 L620 480 M680 760 L980 660 M420 820 L360 1080 L640 1120 L680 760 M640 1120 L900 1020 L980 660 M640 1120 L760 1340 L1000 1240 L900 1020 M360 1080 L240 1300 L520 1360 L640 1120"/>
  </g>
  <g fill="#ffffff" fill-opacity="0.85">
    <circle cx="120" cy="200" r="5"/><circle cx="360" cy="320" r="6"/><circle cx="620" cy="240" r="5"/>
    <circle cx="300" cy="560" r="6"/><circle cx="620" cy="480" r="7"/><circle cx="880" cy="420" r="5"/>
    <circle cx="980" cy="660" r="6"/><circle cx="420" cy="820" r="6"/><circle cx="680" cy="760" r="7"/>
    <circle cx="360" cy="1080" r="5"/><circle cx="640" cy="1120" r="7"/><circle cx="900" cy="1020" r="6"/>
    <circle cx="240" cy="1300" r="5"/><circle cx="520" cy="1360" r="6"/><circle cx="760" cy="1340" r="5"/><circle cx="1000" cy="1240" r="5"/>
  </g>
  <g fill="#ffffff" fill-opacity="0.16">
    <circle cx="360" cy="320" r="16"/><circle cx="620" cy="480" r="18"/><circle cx="680" cy="760" r="18"/><circle cx="640" cy="1120" r="16"/>
  </g>
</svg>
