<svg xmlns="http://www.w3.org/2000/svg" viewBox="0 0 880 200" width="880" height="200" role="img" aria-label="BuddyNext">
  <defs>
    <linearGradient id="bnGrad" x1="0" y1="0" x2="1" y2="1">
      <stop offset="0" stop-color="#E63E2B"/>
      <stop offset="1" stop-color="#F59E0B"/>
    </linearGradient>
  </defs>
  <g transform="translate(8,20) scale(0.3125)">
    <rect x="36" y="36" width="440" height="440" rx="120" fill="url(#bnGrad)"/>
    <g fill="#FFFFFF">
      <g opacity="0.8">
        <circle cx="150" cy="206" r="44"/><path d="M94 310a56 60 0 0 1 112 0v2a6 6 0 0 1-6 6H100a6 6 0 0 1-6-6z"/>
        <circle cx="362" cy="206" r="44"/><path d="M306 310a56 60 0 0 1 112 0v2a6 6 0 0 1-6 6H312a6 6 0 0 1-6-6z"/>
      </g>
      <circle cx="256" cy="244" r="62"/><path d="M166 400a90 94 0 0 1 180 0v4a10 10 0 0 1-10 10H176a10 10 0 0 1-10-10z"/>
    </g>
  </g>
  <text x="196" y="118" font-family="Inter, 'Segoe UI', system-ui, -apple-system, sans-serif" font-weight="800" font-size="104" letter-spacing="-5">
    <tspan fill="#2B2118">Buddy</tspan><tspan fill="url(#bnGrad)">Next</tspan>
  </text>
  <text x="200" y="162" font-family="Inter, 'Segoe UI', system-ui, sans-serif" font-weight="500" font-size="26" letter-spacing="0.5" fill="#7A7268">Next-generation community for WordPress</text>
</svg>
